<svg width="22" height="24" viewBox="0 0 22 24" fill="none" xmlns="http://www.w3.org/2000/svg">
<path d="M11 2.23256C8.97496 2.23256 7.33333 3.73188 7.33333 5.5814V11.1628C7.33333 13.0123 8.97496 14.5116 11 14.5116C13.025 14.5116 14.6667 13.0123 14.6667 11.1628V5.5814C14.6667 3.73188 13.025 2.23256 11 2.23256ZM12.2222 21.148V22.8837C12.2222 23.5002 11.675 24 11 24C10.325 24 9.77778 23.5002 9.77778 22.8837V21.148C4.27784 20.5927 0 16.334 0 11.1628C0 10.5463 0.547207 10.0465 1.22222 10.0465C1.89724 10.0465 2.44444 10.5463 2.44444 11.1628C2.44444 15.4783 6.2749 18.9767 11 18.9767C15.7251 18.9767 19.5556 15.4783 19.5556 11.1628C19.5556 10.5463 20.1028 10.0465 20.7778 10.0465C21.4528 10.0465 22 10.5463 22 11.1628C22 16.334 17.7222 20.5927 12.2222 21.148ZM11 0C14.3751 0 17.1111 2.49888 17.1111 5.5814V11.1628C17.1111 14.2453 14.3751 16.7442 11 16.7442C7.62493 16.7442 4.88889 14.2453 4.88889 11.1628V5.5814C4.88889 2.49888 7.62493 0 11 0Z" fill="#D3D2D2"/>
</svg>
